Coordinates
version=1
nRows=9
nColumns=24
inDegrees=yes

Units are S.I. units (second, meters, Newtons, ...)
Angles are in degrees.

endheader
time	pelvis_tilt	pelvis_list	pelvis_rotation	pelvis_tx	pelvis_ty	pelvis_tz	hip_flexion_r	hip_adduction_r	hip_rotation_r	knee_angle_r	ankle_angle_r	subtalar_angle_r	mtp_angle_r	hip_flexion_l	hip_adduction_l	hip_rotation_l	knee_angle_l	ankle_angle_l	subtalar_angle_l	mtp_angle_l	lumbar_extension	lumbar_bending	lumbar_rotation
      2.97500000	     -1.34192750	      4.17854099	      5.60022805	     -1.48075181	      0.91752551	      0.23007434	     30.29857992	     -2.58732461	     -5.45775147	    -14.71483944	     10.36783055	     -5.95211977	      0.00000000	    -13.19905050	      8.15777967	      7.44650669	    -20.11839017	     21.15701526	     -7.77983705	      0.00000000	    -11.13692908	     -3.09441882	    -14.36572875
      2.98000000	     -1.30203967	      3.97248194	      5.68478423	     -1.47279532	      0.91635292	      0.23009728	     30.40360199	     -2.33249935	     -5.24766549	    -15.67865816	      9.69793759	     -6.65432124	      0.00000000	    -13.11054878	      7.78045424	      6.78349559	    -21.25353581	     21.15620295	     -6.83135590	      0.00000000	    -11.09447709	     -2.78442365	    -14.44518522
      2.98500000	     -1.33311972	      3.72293137	      5.60664046	     -1.46480340	      0.91510349	      0.23043127	     30.59625102	     -1.92521081	     -4.73226680	    -16.64055390	      8.77887776	     -7.58197365	      0.00000000	    -12.88740462	      7.37254083	      5.86901792	    -22.45890429	     21.08132981	     -5.83628784	      0.00000000	    -10.95612228	     -2.47693873	    -14.28381157
      2.99000000	     -1.37093282	      3.43891307	      5.53110200	     -1.45685820	      0.91394176	      0.23079405	     30.80358879	     -1.47775147	     -4.21471629	    -17.62606438	      7.77902723	     -8.52075600	      0.00000000	    -12.59180449	      6.91245792	      4.95195542	    -23.76267911	     20.91044421	     -4.84006673	      0.00000000	    -10.81485130	     -2.12722758	    -14.14061029
      2.99500000	     -1.41296243	      3.10831009	      5.42005546	     -1.44892339	      0.91283760	      0.23121637	     31.03610983	     -0.96053207	     -3.65966677	    -18.65559805	      6.77175140	     -9.43222870	      0.00000000	    -12.23239600	      6.39393920	      3.98074159	    -25.15023093	     20.64674711	     -3.87051086	      0.00000000	    -10.66644775	     -1.72573324	    -13.92683370
      3.00000000	     -1.46335404	      2.73515793	      5.28400661	     -1.44101095	      0.91182449	      0.23170460	     31.29405162	     -0.38448134	     -3.10962998	    -19.71968348	      5.76269079	    -10.29073224	      0.00000000	    -11.80498197	      5.81668587	      2.99954844	    -26.62389392	     20.27238014	     -2.90327157	      0.00000000	    -10.50863107	     -1.28108199	    -13.70755059
      3.00500000	     -1.51352782	      2.36180680	      5.10204657	     -1.43316769	      0.91090691	      0.23230186	     31.55972309	      0.24273725	     -2.41547644	    -20.80082262	      4.71613683	    -11.25569116	      0.00000000	    -11.32429885	      5.23409113	      2.03603992	    -28.17265223	     19.73880353	     -2.00303675	      0.00000000	    -10.36424708	     -0.84828486	    -13.46491487
      3.01000000	     -1.56641849	      1.92970301	      4.93497590	     -1.42528242	      0.91005059	      0.23287119	     31.84327220	      0.90897639	     -1.86223230	    -21.93353208	      3.84007592	    -12.03396140	      0.00000000	    -10.77734270	      4.56467548	      1.07876066	    -29.82221592	     19.11505758	     -1.10992965	      0.00000000	    -10.20406842	     -0.34044836	    -13.21833445
      3.01500000	     -1.61651161	      1.48234498	      4.75134799	     -1.41738907	      0.90926322	      0.23347805	     32.11960188	      1.61002947	     -1.29478707	    -23.07540568	      3.05522173	    -12.80315367	      0.00000000	    -10.18179762	      3.86792526	      0.16252307	    -31.55055903	     18.34622963	     -0.29270667	      0.00000000	    -10.04466890	      0.18186549	    -12.95211428
